# xmcd
#
# Track frame offsets:
#	150
#	15000
#	32325
#	49500
#	65250
#	80250
#	95775
#	112275
#	129225
#	143625
#	154275
#	156662
#
# Disc length: 2250 seconds
#
# Revision: 3
# Processed by: cddbd v1.5.2PL0 Copyright (c) Steve Scherf et al.
# Submitted via: EZCDAudioConverter 9.0.3.1
#
DISCID=9208c80c
DTITLE=花儿乐队 - 花龄盛会 [G1187-2(L)]
DYEAR=2007
DGENRE=country
TTITLE0=穷开心
TTITLE1=鹊桥汇
TTITLE2=爱上洋葱
TTITLE3=把门儿开开
TTITLE4=赞歌唱
TTITLE5=我不介意你恨我
TTITLE6=啵一个
TTITLE7=寂寞啊寂寞
TTITLE8=花痴花蜜
TTITLE9=人人都爱80后（小相声）
TTITLE10=非Fun不可
TTITLE11=好滋味（青春万万岁）
EXTD=
EXTT0=
EXTT1=
EXTT2=
EXTT3=
EXTT4=
EXTT5=
EXTT6=
EXTT7=
EXTT8=
EXTT9=
EXTT10=
EXTT11=
PLAYORDER=
